<svg width="47" height="25" viewBox="0 0 47 25" fill="none" xmlns="http://www.w3.org/2000/svg">
<path d="M10.272 1.056L11.208 1.08C11.24 1.08 11.392 1.12 11.664 1.2C11.936 1.264 12.256 1.408 12.624 1.632C13.008 1.84 13.264 2.072 13.392 2.328C13.648 2.92 13.24 3.504 12.168 4.08C12.024 4.128 11.696 4.208 11.184 4.32C11.28 4.304 11.408 4.272 11.568 4.224C11.184 4.576 10.944 4.968 10.848 5.4C10.768 5.816 10.72 6.248 10.704 6.696C10.704 7.128 10.696 7.568 10.68 8.016C10.664 8.464 10.528 8.912 10.272 9.36C10.032 9.792 9.8 10.176 9.576 10.512C9.352 10.832 9.12 11.112 8.88 11.352C8.48 11.752 7.848 12.104 6.984 12.408C7.176 12.52 7.208 12.68 7.08 12.888C6.968 13.08 6.872 13.248 6.792 13.392C6.728 13.536 6.72 13.76 6.768 14.064C6.816 14.352 6.792 14.696 6.696 15.096C6.616 15.496 6.512 15.888 6.384 16.272C6.256 16.64 6.128 17.008 6 17.376C5.888 17.728 5.84 18.072 5.856 18.408C5.872 19.144 6.304 19.768 7.152 20.28C8 20.76 8.56 21.152 8.832 21.456C9.344 22.032 9.512 22.632 9.336 23.256C9.128 23.592 8.84 23.856 8.472 24.048C8.12 24.24 7.784 24.368 7.464 24.432C6.968 24.528 6.256 24.52 5.328 24.408C4.848 24.312 4.488 24.192 4.248 24.048C3.752 23.824 3.12 23.288 2.352 22.44C1.584 21.608 1.152 20.928 1.056 20.4C0.976 19.872 1.04 19.352 1.248 18.84C1.456 18.312 1.64 17.88 1.8 17.544C1.96 17.192 2.152 16.824 2.376 16.44C2.6 16.056 2.8 15.656 2.976 15.24C3.392 14.2 3.344 13.544 2.832 13.272C2.816 13.272 2.76 13.256 2.664 13.224C2.568 13.192 2.448 13.16 2.304 13.128C2.064 13.048 1.816 12.944 1.56 12.816C1.08 12.704 0.8 12.568 0.72 12.408C0.544 12.104 0.672 11.792 1.104 11.472C1.568 11.248 2 11.152 2.4 11.184C4.256 10.848 5.568 10.328 6.336 9.624C6.64 9.352 6.8 9.072 6.816 8.784C6.848 8.48 6.84 8.192 6.792 7.92C6.84 8.144 6.824 8.2 6.744 8.088C6.408 7.48 6.16 6.696 6 5.736C5.824 4.664 6.032 3.736 6.624 2.952C7.072 2.376 7.392 2.04 7.584 1.944C7.776 1.832 7.96 1.744 8.136 1.68C8.536 1.408 9.104 1.208 9.84 1.08C9.984 1.064 10.128 1.056 10.272 1.056ZM41.1527 21.912C41.0727 22.12 40.9607 22.328 40.8167 22.536C40.6727 22.76 40.5127 22.976 40.3367 23.184C40.1607 23.408 40.0007 23.56 39.8567 23.64C39.7127 23.72 39.5527 23.8 39.3767 23.88C38.9927 24.168 38.4327 24.392 37.6967 24.552C37.4727 24.6 37.2487 24.624 37.0247 24.624H36.3527C36.0327 24.624 35.6167 24.496 35.1047 24.24C34.5927 23.984 34.2647 23.72 34.1207 23.448C33.8167 22.856 34.1927 22.264 35.2487 21.672C35.3607 21.64 35.5127 21.592 35.7047 21.528C35.9127 21.48 36.0807 21.432 36.2087 21.384C36.1287 21.416 36.0087 21.456 35.8487 21.504C36.2007 21.136 36.3847 20.744 36.4007 20.328C36.4327 19.912 36.4087 19.488 36.3287 19.056C36.2647 18.608 36.2007 18.168 36.1367 17.736C36.0887 17.288 36.1687 16.856 36.3767 16.44C36.8727 15.464 37.5527 14.736 38.4167 14.256C39.2807 13.76 40.2327 13.376 41.2727 13.104C40.1687 12.448 39.8487 11.208 40.3127 9.384C40.4087 9 40.5127 8.624 40.6247 8.256C40.7367 7.872 40.8407 7.496 40.9367 7.128C40.8407 6.888 40.8087 6.632 40.8407 6.36C40.8727 6.088 40.8727 5.888 40.8407 5.76C40.8247 5.616 40.7447 5.456 40.6007 5.28C40.4247 5.152 40.2407 5.024 40.0487 4.896C39.8727 4.752 39.6887 4.616 39.4967 4.488C38.2327 4.44 37.4647 4.04 37.1927 3.288C37.0967 3.016 37.0887 2.712 37.1687 2.376C37.5847 1.704 38.1527 1.296 38.8727 1.152C39.5927 0.992 40.3447 0.952 41.1287 1.032C41.3527 1.08 41.5287 1.12 41.6567 1.152C41.8007 1.168 41.9927 1.232 42.2327 1.344C42.4727 1.456 42.7287 1.616 43.0007 1.824C43.2727 2.032 43.5287 2.264 43.7687 2.52C44.3127 3.128 44.6327 3.688 44.7287 4.2C45.0167 4.904 45.1607 5.584 45.1607 6.24C45.1767 6.896 45.1127 7.384 44.9687 7.704C44.8407 8.008 44.7207 8.272 44.6087 8.496C44.4967 8.72 44.3767 8.968 44.2487 9.24C44.1207 9.512 44.0007 9.792 43.8887 10.08C43.7927 10.368 43.7207 10.64 43.6727 10.896C43.5927 11.488 43.7447 11.872 44.1287 12.048C44.1767 12.048 44.3047 12.08 44.5127 12.144C44.7367 12.208 44.9207 12.264 45.0647 12.312C45.2087 12.344 45.3287 12.384 45.4247 12.432C45.9047 12.544 46.1927 12.672 46.2887 12.816C46.4647 13.104 46.3527 13.424 45.9527 13.776C45.5047 14 45.0727 14.112 44.6567 14.112C43.4407 14.416 42.5607 14.712 42.0167 15C40.9447 15.576 40.3927 16.184 40.3607 16.824C40.3287 17.032 40.3527 17.288 40.4327 17.592C40.3847 17.4 40.4007 17.336 40.4807 17.4C40.7847 17.864 41.0647 18.648 41.3207 19.752C41.4167 20.168 41.4327 20.584 41.3687 21C41.3207 21.416 41.2487 21.72 41.1527 21.912Z" fill="#17d1f1"/>
<path d="M14.0366 20.208L13.8686 4.704C13.8686 4.32 14.0206 3.992 14.3246 3.72C14.6446 3.432 15.0046 3.232 15.4046 3.12C15.8046 3.008 16.1806 2.992 16.5326 3.072C16.8846 3.152 17.1086 3.36 17.2046 3.696C17.5086 4.304 17.7166 5.144 17.8286 6.216C18.0366 8.216 18.1406 9.944 18.1406 11.4C18.3006 11.656 18.5006 11.776 18.7406 11.76C19.4286 10.08 20.1886 8.464 21.0206 6.912C21.8526 5.36 22.3886 4.368 22.6286 3.936C22.8686 3.488 23.1566 3.176 23.4926 3C23.8286 2.824 24.1886 2.712 24.5726 2.664C25.4046 2.568 26.1886 2.712 26.9246 3.096C27.4846 3.288 27.8126 3.616 27.9086 4.08C28.2766 4.816 28.0286 5.664 27.1646 6.624C26.1566 8.224 25.1406 9.992 24.1166 11.928C22.1646 15.656 20.9246 17.952 20.3966 18.816C19.8686 19.68 19.4846 20.296 19.2446 20.664C19.0046 21.016 18.7326 21.312 18.4286 21.552C17.8846 21.984 17.2286 22.16 16.4606 22.08C15.1166 22.032 14.3326 21.608 14.1086 20.808C14.0606 20.584 14.0366 20.384 14.0366 20.208ZM34.6442 4.776C34.0842 6.52 33.5642 8.096 33.0842 9.504C32.6202 10.912 32.1882 12.208 31.7882 13.392C31.4042 14.576 31.0442 15.672 30.7082 16.68C30.3722 17.672 30.0602 18.624 29.7722 19.536C29.6122 20.592 29.0922 21.336 28.2122 21.768C27.7002 22.008 27.0922 22.128 26.3882 22.128C25.6842 22.128 25.1562 22.048 24.8042 21.888C24.4522 21.744 24.2282 21.528 24.1322 21.24C24.0202 20.952 24.0202 20.608 24.1322 20.208C24.2282 19.792 24.4042 19.232 24.6602 18.528C24.9162 17.808 25.2362 16.84 25.6202 15.624C26.0202 14.408 26.4362 13.176 26.8682 11.928C27.9402 8.808 28.7882 6.648 29.4122 5.448C29.6522 5 29.8922 4.704 30.1322 4.56C30.3722 4.4 30.6042 4.288 30.8282 4.224C31.0522 4.144 31.2602 4.056 31.4522 3.96C31.6442 3.864 31.8122 3.624 31.9562 3.24C32.1162 2.856 32.3962 2.592 32.7962 2.448C33.2122 2.304 33.5962 2.296 33.9482 2.424C34.3162 2.536 34.5882 2.792 34.7642 3.192C34.9562 3.576 34.9162 4.104 34.6442 4.776Z" fill="#A98AFF"/>
</svg>
